<?xml version="1.0" encoding="UTF-8"?>
<svg width="1200pt" height="1200pt" version="1.1" viewBox="0 0 1200 1200" xmlns="http://www.w3.org/2000/svg">
 <path d="m1126.6 1015c-25.129 20.062-44.434 4.1914-69.613-16.508-12.75-10.48-27.195-22.922-43.059-27.84-9.4453-2.9297-19.68-3.2617-30.918 0.96484-24.004 9.0312-50.484 45.836-60.344 69.973-10.902 26.688-6.8359 47.488 21.109 58.902 34.332 14.023 76.281 12.207 111.5 1.918 14.711-4.2969 28.684-10.18 41.105-17.352 15.656-9.0391 30.844-23.082 43.918-38.305 13.938-16.227 33.59-43.688 38.996-64.105 1.2344-4.6562 1.6953-9.5898-1.1914-12.781-3.8672-4.2812-4.0391-1.3633-5.457 2.0469-12.922 31-32.723 58.926-57.133 80.73-25.117 22.438-55.117 38.41-87.539 44.609-3.8672 0.73828-4.9922-5.1406-1.125-5.8828 31.336-5.9961 60.359-21.453 84.68-43.18 23.391-20.895 42.434-47.562 55.016-77.176 1.3867-3.2656 2.7461-5.4102-1.8047-2.1641-8.3672 5.9727-14.859 19.117-21.117 27.758-4.8359 6.6758-10.586 13.254-17.023 18.395zm56.305-1011.3c8.4141-8.2773 21 4.5195 12.586 12.797-11.586 11.348-23.16 22.703-34.727 34.07-4.7734 4.6914-7.082 4.7031-1.6992 10.18l17.117 17.227c10.051 10.113 8.6094 20-0.03125 29.289-3.0469 3.2734-17.875 19.113-32.824 34.141-8.3125 8.3555-16.645 16.441-22.984 21.941-5.3516 4.6406-12.395 5.3945-18.285 1.4375-55.465 53.688-111.07 107.79-167.72 162.91-46.586 45.328-93.887 91.352-142.42 138.42-2.8203 2.7422-6.9922-1.543-4.1719-4.2891 48.531-47.066 95.832-93.09 142.42-138.42 56.641-55.113 112.23-109.2 167.68-162.87-4.3125-6.5039-3.1133-14.336 2.25-19.934 2.1641-2.2578-2.6445-6.375-4.8672-4.1289-7.7227 7.8203-12.215 5.0664-17.637 1.1328-2.2812-1.6562-4.1367-0.94141-6.2422 1.1367-16.203 16.023-28.418 28.121-44.57 44.125-5.043 5.1523-5.9492 1.5352-13.133 8.7812-78.891 79.594-159.88 157.08-240.34 235.08-5.6406 5.4883-13.984-3.0898-8.3438-8.5781 80.59-78.133 159.88-155.55 239.71-234.46 5.1367-5.0781 4.4727-8.4727 8.875-12.984 28.484-28.227 55.355-54.816 83.777-82.859 28.48-28.102 57-56.16 85.582-84.152zm-41.254 65.664c-10.586 10.422-21.168 20.852-31.742 31.285-8.3086 8.1992-14.77 15.199-23.363 23.07-3.7969 3.4766 0.046875 4.0742 3.6875 1.5234 12.539-8.7852 30.559 11.047 18.484 23.656-3.625 3.7891 0.29688 8.4414 3.8008 5.3984 6.0625-5.2617 14.184-13.145 22.328-21.332 14.68-14.758 29.496-30.582 32.543-33.859 4.3906-4.7188 4.9258-8.0547 0.3125-12.699-6.3945-6.4375-10.789-10.82-17.164-17.273-5.2148-5.3047-2.5078-6.0469-8.8828 0.22656zm-664.77 690.61c2.8672-2.6992 6.9688 1.6602 4.1016 4.3594-73.539 69.48-146.18 137.13-218.96 203.43-71.488 65.129-143.23 129.06-216.24 192.3 0.046875 0.28906 0.089843 0.57812 0.12891 0.86719 0.79688 6.1562-0.66797 11.988-6.3906 16.926-0.24219 0.20703-2.0039 1.7617-3.8281 3.3672-4.4609 3.9297-9.3945 8.2734-14.504 11.891-4.6914 3.3242-9.2383 4-12.82 2.9805-2.0977-0.59766-3.875-1.7734-5.2305-3.3828-1.3125-1.5625-2.1602-3.4766-2.4414-5.6055-0.50781-3.8203 0.84766-8.4062 4.7891-12.523 3.5-3.6562 1.3438-8.0508-0.82422-12.465-4.3359-8.8281-8.6953-17.699 3.2188-28.129l0.003906 0.003907c64.848-59.285 133.12-122.48 203.35-188.11 74.906-69.992 151.28-142.05 227.47-214.48 5.7031-5.4258 13.953 3.2461 8.25 8.6719-76.43 72.656-152.85 144.76-227.57 214.58-55.652 52.004-110.79 103.13-164.79 152.73-0.25391 1.3516-0.97266 2.6211-2.1289 3.5508-7.4023 5.9805-12.16 11.891-14.117 17.781-1.8047 5.4258-1.1836 11.113 1.9922 17.129 1.3477 2.5508 2.6406 5.1719 3.6602 7.8477 72.086-62.469 143.1-125.77 213.98-190.36 72.859-66.375 145.46-133.99 218.89-203.36zm-451.51 374.21c-3.1758 2.9062-6.3516 5.8125-9.5195 8.707l-0.09375 0.09375c-5.0195 4.3945-2.6836 9.1523-0.35938 13.883 4.0117 8.1719 8.0078 16.301-1.2852 26.008-0.44922 0.46875-0.79297 0.89453-1.043 1.2695 0.35156-0.19141 0.76172-0.44922 1.2266-0.78125 4.1914-2.9688 9.0664-7.2617 13.473-11.141 0.85938-0.75391 1.6914-1.4922 3.9219-3.4141 2.125-1.8359 2.6641-4.0391 2.3594-6.3828-0.42578-3.2852-2.2773-7.1836-4.3008-11.012-3.082-5.8359-4.5234-11.57-4.3828-17.234zm62.656-955.29c-2.8398 2.5195-4.9453 5.3945-5.9297 8.3867-1.5508 4.7148 0.054687 8.8242 3.1953 12.363 5.2539 5.9258 10.879 8.4141 16.508 8.5391 8.5273 0.19141 33.18-8.4102 24.18-21.027-4.3867-6.1523-13.465-11.348-20.586-13.301-7.5625-2.0742-11.605-0.070312-17.367 5.043zm-5.6758-25.125 12.379 7.7695c4.1641-0.94922 8.9648-0.54688 13.809 0.78125 4.5117 1.2383 9.1758 3.2969 13.379 5.7852 3.8555 2.2812 2.2188 2.1328 6.293 0.11719 5.9023-2.9219 13.805-5.9805 19.273-8.4414 7.1836-3.2383 12.105 7.6836 4.9219 10.922l-14.715 6.625c-4.0859 1.8398-3.1758 0.91406-1.1055 4.1523 3.3438 5.2305 1.1328 3.9922 6.8164 7.6641 3.793 2.4531 7.5117 5.0195 11.078 7.582 5.3477 3.8398 10.215 7.5625 14.477 10.855 8.9688 6.9219 18.297 1.9141 27.652-3.1055 3.6914-1.9805 7.3828-3.9648 11.125-5.5078 6.8555-2.8281 7.1133-0.87109 0.53516-6.75l-12.004-10.727c-4.5781-4.0898-6.5156-9.6562-5.7617-15.676-13.957-13.613-29.582-26.477-47.906-35.535-19.125-9.4531-41.348-14.809-67.969-12.582-14.254 1.1914-24.441-10.723-15.191-16.297 7.582-4.582 10.344-13.238 10.312-21.746-0.03125-9.6602-3.8867-21.117-11.035-27.93-6.8086-6.4883-12.875-9.0352-19.18-9.8008-21.418-2.1445-32.277 20.352-26.672 42.152 3.9844 15.496 8.4375 29.445 20.148 40.43 6.3242 5.9336 4.6719 3.5039 12.145 4.3711 8.082 0.9375 16.723 4.8906 23.336 9.4453l21.312-9.5938c7.1836-3.2383 12.105 7.6836 4.9219 10.922l-16.527 7.4414c1.6562 2.0391 3.0977 4.2695 4.1602 6.6758zm78.676-94.348c9.5117-6.7852 19.988-11.379 30.527-11.141 9.2734 0.20703 18.297 4.0391 26.379 13.152 6.2305 7.0312 8.8945 15.805 5.875 24.992l-0.0625 0.19141c8.0586-4.8438 16.652-7.8945 25.293-7.6992 9.2734 0.20703 18.297 4.0391 26.379 13.152 13.195 14.887 6.4336 33.188-9.0508 43.57-6.9805 4.6836-8.6797 1.418 0.1875 8.7461l241.93 199.85c53.914-23.422 101.92-19.883 142.71-0.039063 49.305 23.98 87.742 71.797 113.1 124.36 4.1211 8.543 17.383 14.711 25.727 17.957 20.098 7.8281 33.426 22.906 12.312 38.477-12.973 9.5664-11.227 17.238-0.44141 28.488 5.3828 5.6133 20.277 21.137 38.566 37.965 18.121 16.676 39.496 34.559 57.883 44.988 17.207 9.7578 30.113 14.43 39.695 15.762 9.0742 1.2617 20.75-0.74219 21.828-11.742 0.58594-5.9531 2.0586-11.02 14.395-11.234 7.5898-0.13281 17.418 2.9648 19.344 11.254 2.3516 10.121 9.582 19.133 18.941 26.973 9.8438 8.2461 21.98 15.137 33.48 20.691 53.648 25.91 104.45 72.012 132.14 126.46 22.258 43.754 29.695 92.898 12.012 141.44-3.7812 10.375-1.2617 4.6562 1.1484 13.773 1.3555 5.125 0.89844 10.77-0.46094 15.891-5.8008 21.91-25.938 50.586-40.719 67.945 4.5703 13.758 2.2617 28.691-7.8555 39.332-7.2188 7.5938-16.871 11.395-26.992 12.078-9.4883 0.64062-6.7227-2.3828-13.125 5.0859-34.055 39.742-80.77 70.445-130.64 82.844-97.398 24.211-175.54-26.223-220.6-110.43-19.348-36.156-32.18-61.875-57.812-95.438-4.5703-5.9844-10.691-10.93-18.145-12.672-17.859-4.1758-26.301-21.586-10.496-36.125 6.3906-5.8789 12.555-12.496 18.688-18.684 8.7188-8.793 11.117-9.5117 9.2852-23.055-1.5898-11.762-6.9844-23.719-11.871-34.465-14.672-32.262-37.395-59.922-65.312-81.637-17.566-13.664-48.719-28.395-69.215-12.758-20.598 15.711-31.77 13.848-38.207-12.402-5.4102-22.047-22.66-30.875-43.051-41.309-44.113-22.574-81.352-52.148-100.95-99.289-14.16-34.062-15.277-71.34-1.3594-107.32 6.1836-15.988 19.438-35.977 29.367-52.418 5.1367-8.5 4.1758-4.5312-1.4805-11.758-12.645-16.164-5.4297-28.34 2.3711-41.5 8.2148-13.863 17.297-29.188-12.332-55.664l-146.14-130.58c-11.91-10.641-18.5-7.7031-32.012-0.44531-12.773 6.8594-25.516 13.699-40.633 2.0273-4.2773-3.3008-9.1172-7.0039-14.148-10.621-6.5234-4.6875-8.3555-6.5156-10.957-2.5234-6.7812 9.1328-23.922 16.477-34.973 16.23-8.8711-0.19922-17.504-3.8594-25.227-12.57-4.2422-4.7852-6.9688-10.684-6.8242-17.172 0.23828-10.691 6.7617-10.98-5.5586-4.9492-6.5586 3.2109-13.391 5.1016-20.25 4.9492-18.352-0.41016-38.664-18.641-32.254-38.145 1.7383-5.293 5.2188-10.164 9.8203-14.242 6.2578-5.5508 5.6367-2.3906-0.44922-9.5273-3.8594-4.5234-7.0469-9.3438-9.6797-14.344-4.7773-9.0742-7.707-18.707-9.5-28.215-5.7305-30.414 3.5938-46.883 31.176-58.289l28.465-11.77-0.003906-0.007813c13.812-5.75 26.965-1.8242 37.141 6.7188 9.8984 8.3125 17.121 21.332 18.762 34.168 1.3438 10.523-1.0547 20.676-8.5312 27.695 12.578 0.30469 27.008 2.7344 41.777 6.9648 8.7188 2.4961 10.043 5.0625 5.3516-1.5117-7.9297-11.117-5.6953-22.656 5.2461-30.461zm41.105 48.891c-0.54688 0.25-1.1094 0.47266-1.6875 0.66406-4.4336 1.4766-5.8789 0.023438-0.54297 3.0391 2.6055 1.4727 5.168 3 7.6719 4.5703 7.8477 4.9297 4.5156 3.7109 2.25-2.4609-0.65234-1.7773-1.0703-3.5938-1.2188-5.4297-0.47656-5.832 0.58594-3.6211-6.4727-0.38672zm-10.812-48.078c-7.6562-0.17187-15.746 3.5078-23.355 8.9375-9.8398 7.0195-2.7578 15.152 4.3398 20.426 4.4141 3.2773 9.9297 6.0898 15.129 7.5156 10.461 2.8672 21.805-4.6914 24.988-14.387 1.6719-5.0898-0.046876-9.543-3.4375-13.367-5.6133-6.332-11.629-8.9883-17.66-9.1211zm57.484 30.641c-7.6562-0.17188-15.746 3.5078-23.355 8.9375-9.8398 7.0195-2.7578 15.152 4.3398 20.426 4.4141 3.2773 9.9297 6.0898 15.129 7.5156 8.0469 2.207 12.539 0.015625 18.633-5.3906 7.4062-6.5664 9.7578-14.641 2.9141-22.363-5.6133-6.332-11.629-8.9883-17.66-9.1211zm-204.86 87.566c7.6562 0.17188 15.746-3.5078 23.355-8.9375 9.6758-6.9023 3.0938-14.906-4.3398-20.426-11.352-8.4297-22.258-12.324-33.766-2.1211-3.0391 2.6953-5.2969 5.7773-6.3516 8.9922-3.8242 11.648 11.02 22.266 21.102 22.492zm922.8 625.16-9.2969-11.836c-4.9375 4.7852-9.9375 9.5039-15.012 14.141l9.3477 12.211c2.832-1.0039 6.2344-0.42188 8.7227 1.7773 3.4805 3.0742 3.8633 8.1367 0.85938 11.309-3.0078 3.1719-8.2656 3.25-11.742 0.17578-3.4805-3.0742-3.8633-8.1328-0.86328-11.305l-8.9922-11.742c-4.9805 4.5039-10.316 9.1875-16.09 14.078l9.6406 12.594c2.8672-1.0898 6.3516-0.52734 8.8906 1.7188 3.4805 3.0742 3.8633 8.1367 0.85937 11.309-3.0078 3.1719-8.2656 3.25-11.742 0.17578-3.4336-3.0312-3.8516-8-0.98047-11.176l-9.418-12.301c-4.8477 4.0625-10.398 8.2734-13.398 13.934-5.9883 11.297 8.3945 16.996 16.965 19.18 66.75 17.016 119.98 68.277 168.6 115.1 8.7617 8.4375 17.375 16.73 25.703 24.488 5.6445 5.2539 4.3672 5.2617 9.875-1.1484 0.69922-0.8125 1.3828-1.6406 2.0547-2.4766 5.0938-6.3516 4.1523-4.8359-1.6992-10.664-10.879-10.84-21.02-20.777-30.453-30.023-63.129-61.875-95.082-93.191-111.94-161.37-3.1328-12.66-9.1289-19.801-19.77-9.2305-2.2109 2.1953-4.4805 4.4414-6.8281 6.7344l9.6016 12.219c2.9141-1.2344 6.543-0.70313 9.1602 1.6094 3.4805 3.0742 3.8633 8.1367 0.85938 11.309-3.0078 3.1719-8.2656 3.25-11.742 0.17578-3.3555-2.9648-3.832-7.7734-1.1719-10.957zm-16.73-21.297-68.566-87.273-13.531 13.531 67.215 87.801c5.0312-4.6133 9.9883-9.3047 14.887-14.059zm-76.98-95.828-40.414-34.027c2.7969 6.6055-1.2539 13.141-8.082 14.105-3.4688 0.48828-4.6719-1.0547-0.49219 2.5508l35.629 30.734 13.363-13.363zm-50.672-42.668-8.5625-7.2109c-2.0312-1.7109-2.8359-2.5-3.0859 1.2734-0.35547 5.3125 7.1055 8.4414 11.59 8.1836 3.293-0.1875 3.8906 0.97656 0.0625-2.25zm-19.727-16.609-34.273-28.859c-4.4805 3.2578-9.0781 7.0508-13.531 11.051l41.152 35.504c5.6016 4.832 3.4805 3.6562 2.8281-1.9805-0.64062-5.5312 0.35156-11.402 3.8242-15.719zm-43.68-36.781-530.98-447.11c-1.5547 0.73047-3.1289 1.5625-4.6953 2.4766-1.1445 0.66797-2.2773 1.375-3.3867 2.1133l525.8 453.61c4.3125-3.9258 8.8008-7.7109 13.262-11.09zm-527.26-448.66 530.22 446.47c2.9883-2.1484 5.9414-4.0859 8.8008-5.7383 3.4375-1.9844 3.5586-3.2188 0.51953-5.6602l-0.070312-0.046875-527.27-435.57c-0.66016-0.4375-1.457-0.72656-2.3555-0.88672-2.7578-0.48828-6.1797 0.10156-9.8516 1.4336zm539.7 454.45 33.77 28.434c10.449-8.6133 25.074-3.3281 34.895 3.6211 17.223 12.188 34.223 27.133 50.008 41.184l5.7109-5.7109c5.5781-5.5781 14.062 2.9023 8.4844 8.4844l-5.2617 5.2617c13.578 12.336 26.656 24.812 36.672 35.191 8.4922 8.7969 16.445 10.988 22.047 9.5664 10.594-2.6875 9.2695-13.188-2.5625-16.359-4.0547-1.0859-7.8633-3.2969-9.8906-7.1133-3.957-7.4531 1.3828-17 9.957-16.938 10.633 0.078126 18.301 11.527 20.633 20.781 3.3789 13.414-0.51172 27.512-15.234 31.25-9.2383 2.3438-21.578-0.46875-33.574-12.895-9.9844-10.34-23.02-22.773-36.512-35.023l-6.5312 6.5312 68.598 87.309c2.0039-1.9609 3.9414-3.875 5.8281-5.75 17.695-17.582 34.449-6.9102 39.828 14.855 16.043 64.875 47.184 95.398 108.71 155.7 9.0781 8.8945 18.805 18.434 29.25 28.828 6.4609 6.4297 4.2188 5.7656 9.5859-1.5703 4.082-5.5781 7.9766-9.8594 12.012-12.738 4.8516-3.4609 9.6992-4.9922 14.898-4.4023 6.1992 0.70313 4.457 2.4453 7.0742-5.125 15.312-44.332 8.1758-89.301-12.293-129.54-26.504-52.102-75.199-96.258-126.66-121.11-12.262-5.9219-25.262-13.32-35.965-22.285-10.125-8.4805-18.23-18.387-21.918-29.844-1.6289-5.0547-2.2188-5.7266-8.4961-5.6211-4.207 0.074219-2.7031 2.332-4.2617 6.543-5.3828 14.543-19.348 18.352-33.789 16.34-10.953-1.5234-25.312-6.6367-43.961-17.215-19.348-10.977-41.449-29.434-60.086-46.582-18.469-16.992-33.609-32.773-39.082-38.48-15.973-16.664-17.039-32.41 1.9883-46.441 12.242-9.0273 0.37891-13.797-9.5469-17.664-11.809-4.5977-26.414-11.938-32.191-23.91-24.312-50.391-60.898-96.102-107.52-118.78-36.383-17.695-79.082-21.348-127.09-2.1289l259.9 214.7-0.003906 0.007813c9.9492 8.0391 8.3984 19.238-2.0859 25.293-1.7344 1-3.5156 2.1289-5.3281 3.3555zm45.785 38.555 58.398 49.172 6.0195-6.0195c-15.273-13.578-31.773-28.109-48.43-39.898-6.1367-4.3438-11.215-5.9922-15.035-5.9062-4.4375 0.097657-3.3555 0.62891-0.95312 2.6562zm115.29 164.03-67.113-87.664-15.219 15.219 66.25 86.539c5.8086-4.9258 11.137-9.6133 16.078-14.094zm-75.336-96.41c-11.691-10.086-23.383-20.172-35.07-30.254-9.3711-8.0859-18.738-16.168-28.102-24.242l-41.793-36.055c-5.0508 4.6875-9.8086 9.5273-13.898 14.039l103.68 91.699 15.184-15.184zm-114.09-98.422-526.17-453.93c-3.1016 2.3086-5.9492 4.8242-8.3164 7.3438l520.75 460.57c4.0938-4.5273 8.7852-9.332 13.738-13.984zm170.59 211.24-66.062-86.297-39.809 39.809c-5.5781 5.5781-14.062-2.9023-8.4844-8.4844l40.121-40.121-103.53-91.562c-2.3906 2.7383-4.4883 5.3086-6.1992 7.5898-7.4609 9.957-14.984 9.5938-23.246 1.1797l-254.84-227.7c-7.5742-6.7695-5.6133-7.7656-12.594-0.64453-11.457 11.684-20.703 23.891-27.844 36.387-15.812 27.672-21.293 56.781-17.57 84.762 2.4414 18.363 8.8555 36.285 18.914 53.043 20.578 34.277 50.41 56.02 85.605 74.027 23.035 11.785 42.523 21.758 49.238 49.137 4.1953 17.105 5.4453 16.281 19.316 5.6992 25.48-19.434 61.488-4.5781 83.84 12.805 29.445 22.902 58.184 56.926 73.672 90.984 7.4961 16.48 13.602 35.562 12.777 52.988-1.582 33.414-22.008 37.844-30.066 44.078-6.4023 4.9531 0.55078 9.668 5.8789 10.914 10.152 2.375 18.684 8.8906 24.938 17.078 21.836 28.594 30.797 47.328 45.777 78.309 48.93 101.18 161.47 161.45 268.55 102.81 2.6328-1.4414 5.1992-2.9492 7.6953-4.5195 13.492-8.4961 12.211-7.4609-1.1055-3.5742-37.938 11.082-82.34 12.766-119.32-2.3398-34.062-13.914-41.129-41.523-27.672-74.465 11.195-27.402 39.68-66.324 67.188-76.676 14.043-5.2852 26.836-4.8633 38.648-1.1992 17.73 5.5 32.965 18.391 47.137 30.043 15.871 13.047 28.938 23.785 41.992 22.098 8.582-1.1094 5.8125-3.5586 1.0742-7.9805-8.2305-7.6758-14.555-13.82-22.855-21.812-47.516-45.762-99.535-95.855-163.25-112.1-16.707-4.2578-34.945-16.883-24.605-36.383 4.0078-7.5625 10.312-12.523 16.699-17.879zm-186.71-194.58-520.72-460.54c-2.7148 3.4023-6.1133 8.793-1.9609 12.504 12.785 11.422 25.57 22.848 38.352 34.27 71.43 63.824 142.86 127.65 214.29 191.47l255.7 228.46c5.0664 5.0938 5.7539 4.0234 9.668-0.57422 1.4648-1.7227 2.9766-3.6445 4.6758-5.5898zm-2.5234 92.707c-2.9727 2.125-5.2617 6.0586-5.3516 11.926-0.22266 14.168 11.227 37.387 49.871 70.797 14.508 12.543 29.445 27.465 39.637 43.801 10.32 16.539 10.926 29.973 6.7383 39.73-7.1094 16.562-28.27 22.59-43.984 14.68-6.3164-3.1797-8.7383-7.8984-8.7383-12.355 0-6.5898 5.4961-12.02 12.062-12.055 4.4922-0.023438 9.2656 2.3789 12.445 8.7031 4.5156 8.9766 14.496 2.6445 17.199-3.6602 2.7891-6.4961 2.0078-16.051-5.8945-28.715-9.5938-15.371-23.645-29.281-37.293-41.082-41.883-36.207-54.262-62.941-53.996-79.984 0.30078-19.199 15.965-29.734 34.137-25.062 8.7031 2.2383 14.965 9.8242 15.125 18.883 0.30469 17.32-21.797 16.098-20.688 0.43359 0.57031-8.0742-5.6289-10.07-11.27-6.0391zm389.23 379.82c7.457-0.32422 14.688-2.8398 20.004-8.4336 3.0742-3.2305 5.0938-7.0977 6.0859-11.258 2.6211-10.977 0.91797-9.0391-4.8398-3.4062-6.8906 6.7422-14.148 12.973-21.617 18.316-5.5781 3.9922-10.012 5.2305 0.35938 4.7773zm-561.48-357.25-9.0742 15.051c-6.4805 10.746-5.4219 6.8359 3.2031 2.6211 24.738-12.082 56.426 1.9102 76.371 17.426 29.301 22.793 53.477 52.332 68.875 86.184 5.4258 11.93 11.039 24.723 12.809 37.793 0.9375 6.918 1.293 5.8945 7.8555 0.4375 8.6602-7.1992 12.305-16.754 12.797-27.18 0.71875-15.172-4.8828-32.41-11.746-47.504-14.719-32.367-42.137-64.68-70.113-86.438-17.566-13.664-48.719-28.395-69.215-12.758-4.6016 3.5078-8.6016 6.0898-12.168 7.7461-6.6719 3.1016-6.1133 1.1562-9.5938 6.6172zm-24.352 17.184 11.602-19.25c3.5391-6.1523 3.3125-6.0352 0.29297-12.465-1.5391-3.2812-2.793-7.3672-3.9883-12.238-5.4102-22.047-22.66-30.875-43.051-41.309-36.359-18.605-66.867-40.824-88.754-75.758-11.855-18.926-19.387-39.367-22.184-60.402-0.91406-6.8789-1.3242-13.812-1.2109-20.773 0.22656-13.902 3.2383-17.762-5.3359-2.9297-14.316 34.137-13.715 69.73-0.23828 102.16 18.414 44.293 53.898 72.047 95.324 93.242 23.035 11.785 42.523 21.758 49.238 49.137 3.082 12.559 2.2539 10.617 8.3008 0.58984zm529.94 379.4c-113.14 61.965-233.14-0.74609-285.05-108.11-14.66-30.312-23.164-48.297-44.512-76.246-4.5703-5.9844-10.691-10.93-18.145-12.672-15.527-3.6328-11.672-14.145-18.359-7.3984-6.2539 6.3086-12.547 13.062-19.062 19.059-7.4414 6.8477-3.4648 13.641 5.1055 15.645 10.152 2.375 18.684 8.8906 24.938 17.078 26.203 34.312 39.277 60.645 59.113 97.543 42.527 79.105 115.12 126.79 206.92 103.97 32.32-8.0352 63.277-24.195 90.004-45.684 21.629-17.391 17.543-13.312-0.95312-3.1836zm-628.65-742.97-7.3477-6.5625c-11.473-10.254-6.7422-7.9766-8.7422 2.5898-1.543 8.1445-5.8086 15.348-9.9102 22.266-4.707 7.9414-9.1133 15.383-5.4844 23.898 4.0234 9.4375 4.5859 4.9492 8.3359-0.8125 6.5391-10.051 14.383-19.879 23.578-29.367 7.2266-7.457 7.5703-4.8594-0.42969-12.008zm-213.82-252.87c-18.793-15.016-44.059-26.828-68.117-33.719-26.676-7.6406-51.328-9.2812-62.984-2.4453-9.8125 6.1875-9.6133 4.8164 1.0664 4.7266 23.973-0.20312 44.566 5.3945 62.664 14.34 18.246 9.0195 33.832 21.395 47.75 34.609 4.9727-6.7891 12.516-13.074 19.621-17.512zm-156.04-99.891c2.6055 1.7773 5.1914 3.8711 7.7422 6.3008 9.582 9.1289 14.695 23.574 14.738 36.602 0.035156 9.9609-3.2031 10.25 7.4453 3.5312l9.2695-5.8477c5.9922-4.0703 7.8945-11.344 6.9023-19.102-1.2617-9.8711-6.9805-20.094-14.59-26.48-6.9688-5.8516-15.809-8.6094-24.859-4.8438h-0.023437l-6.1172 2.5312c-10.242 4.2344-8.1523 2.1016-0.51172 7.3125z"/>
</svg>
