<?xml version="1.0" encoding="UTF-8"?>
<svg width="1200pt" height="1200pt" version="1.1" viewBox="0 0 1200 1200" xmlns="http://www.w3.org/2000/svg">
 <path d="m11.703 114.71c-77.457 572.04 1251.9 556.14 1176.6 0 74.977 328.22-228.8 472.25-388.53 482.51 2.1797-0.28516 100.39 27.867 135.25 76.348-76.348 23.508-163.63-2.0742-176.56 20.656-0.29688 0.51953 5.9141 58.176-14.809 96.453-41.008 75.746 39.66 117.42-64.27 213.51-121.54 112.38-46.539 103.77-158.77 0-103.93-96.09-23.266-137.76-64.27-213.51-20.723-38.277-14.512-95.934-14.809-96.453-12.93-22.73-100.21 2.8555-176.56-20.656 34.859-48.48 133.07-76.633 135.25-76.348-159.73-10.258-463.51-154.29-388.54-482.51z" fill-rule="evenodd"/>
</svg>
