<?xml version="1.0" encoding="UTF-8"?>
<svg width="1200pt" height="1200pt" version="1.1" viewBox="0 0 1200 1200" xmlns="http://www.w3.org/2000/svg">
 <path d="m828 656.4h283.2v-24h-127.2v-58.801h102l-62.398-93.598h36l-62.398-92.398h30l-64.801-94.801-2.3984-3.6016-2.3984 3.6016-64.801 93.602h30l-61.203 93.598h36l-62.398 92.398h102v58.801h-109.2v-19.199h84l-18-27.602h-80.398l13.199-19.199 43.199-62.398-8.3984-10.801h-21.602l10.801-15.602-12-16.801h24l1.1992-1.1992-52.801-76.801-2.3984-2.3984-2.3984 3.6016-52.801 78h25.199l-51.602 76.801h28.801l-51.602 74.398h85.199v19.199h-700.8v24h126c-44.398 6-87.602 19.199-80.398 44.398 10.801 39.602 178.8 52.801 102 86.398-76.801 34.801-222 80.398-63.602 110.4 49.199 9.6016 134.4 15.602 231.6 18 20.398 2.3984 32.398 9.6016 9.6016 26.398-45.602 34.801-291.6 49.199-188.4 93.602 103.2 43.199 567.6 33.602 627.6 3.6016 51.602-25.199 21.602-63.602-18-78-66-24 10.801-52.801 60-73.199 22.801-4.8008 39.602-10.801 50.398-16.801 75.602-46.801 69.602-92.398-57.602-118.8-127.2-26.398-292.8-39.602-207.6-49.199 67.199-8.3984 98.398-34.801 78-46.801h30l39.598 0.003907z"/>
 <path d="m526.8 330c0 70.914-57.488 128.4-128.4 128.4-70.91 0-128.4-57.484-128.4-128.4s57.488-128.4 128.4-128.4c70.914 0 128.4 57.484 128.4 128.4"/>
 <path d="m254.4 313.2v34.801l-56.398-16.801z"/>
 <path d="m541.2 345.6v-34.801l56.402 18z"/>
 <path d="m379.2 466.8h33.602l-16.801 56.398z"/>
 <path d="m417.6 192h-34.801l18-56.398z"/>
 <path d="m308.4 217.2-24 24-28.797-52.801z"/>
 <path d="m488.4 442.8 24-25.199 27.602 52.797z"/>
 <path d="m488.4 217.2 24 24 27.602-52.801z"/>
 <path d="m308.4 442.8-24-25.199-28.797 52.797z"/>
</svg>
