<?xml version="1.0" encoding="UTF-8"?>
<svg width="1200pt" height="1200pt" version="1.1" viewBox="0 0 1200 1200" xmlns="http://www.w3.org/2000/svg">
 <path d="m870.84 176.06h-541.69c-7.9688-0.046875-15.609 3.0938-21.234 8.7188s-8.8125 13.312-8.7656 21.281v787.87c0 11.859 6.9844 22.594 17.766 27.422 10.828 4.8281 23.484 2.8125 32.297-5.0625l250.78-225.98 250.78 225.98c5.5781 4.9219 12.75 7.6875 20.156 7.6406 4.1719 0 8.25-0.89062 12-2.625 10.828-4.7812 17.812-15.516 17.766-27.375v-787.87c0.046875-7.9688-3.0938-15.609-8.6719-21.234-5.625-5.625-13.266-8.7656-21.188-8.7656zm-30 750.47-220.78-198.84c-11.438-10.219-28.688-10.219-40.125 0l-220.78 198.84v-690.47h481.69z" fill="#676767"/>
</svg>
