<?xml version="1.0" encoding="UTF-8"?>
<svg width="1200pt" height="1200pt" version="1.1" viewBox="0 0 1200 1200" xmlns="http://www.w3.org/2000/svg">
 <path d="m48.48 48.48c9.4297-9.4336 23.16-13.145 36.059-9.75l884.67 232.81c63.742 16.773 85.262 96.371 38.652 142.98l-168.54 168.55 312.19 312.19c14.645 14.645 14.645 38.391 0 53.031l-203.23 203.23c-7.0312 7.0352-16.57 10.984-26.516 10.984-9.9453 0-19.484-3.9492-26.516-10.984l-312.19-312.19-168.55 168.54c-46.605 46.609-126.2 25.09-142.98-38.652l-232.81-884.67c-3.3945-12.898 0.31641-26.629 9.75-36.059zm79.141 79.141 216.45 822.5c2.043 7.7617 11.738 10.383 17.414 4.707l195.06-195.06c7.0312-7.0312 16.566-10.984 26.516-10.984 9.9453 0 19.48 3.9531 26.516 10.984l312.19 312.2 150.2-150.2-312.2-312.19c-14.645-14.645-14.645-38.391 0-53.031l195.06-195.06c5.6758-5.6797 3.0547-15.371-4.707-17.414z" fill="#676767" fill-rule="evenodd"/>
</svg>
