<?xml version="1.0" encoding="UTF-8"?>
<svg width="1200pt" height="1200pt" version="1.1" viewBox="0 0 1200 1200" xmlns="http://www.w3.org/2000/svg">
 <path d="m792 336h96c13.219 0 24-10.781 24-24v-192c0-13.219-10.781-24-24-24h-144c-145.55 0-264 118.45-264 264v121.92h-168c-13.219 0-24 10.781-24 24v190.08c0 13.219 10.781 24 24 24h151.31v360c0 13.219 10.781 24 24 24h200.39c13.219 0 24-10.781 24-24v-360h126.24c10.922 0 20.531-7.3125 23.297-18l50.062-192c1.9219-7.2188 0.375-14.859-4.2188-20.766-4.5469-5.8594-11.531-9.375-18.938-9.375h-168v-72c0-39.703 32.297-72 72-72zm-96 192h160.92l-37.547 144h-131.76c-13.219 0-24 10.781-24 24v360h-152.39v-360c0-13.219-10.781-24-24-24h-151.31v-142.08h168c13.219 0 24-10.781 24-24v-145.92c0-119.06 96.844-216 216-216h120v144h-72c-66.141 0-120 53.859-120 120v96c0 13.219 10.781 24 24 24z" fill="#676767"/>
</svg>
