<?xml version="1.0" encoding="UTF-8"?>
<svg width="1200pt" height="1200pt" version="1.1" viewBox="0 0 1200 1200" xmlns="http://www.w3.org/2000/svg">
 <path d="m929.3 633.9c-2.168-3.8906-5.4727-6.9375-9.5039-9.2109l52.102-47.59-9.1641-13.266 17.695-0.42188 11.238-14.039-20.109-7.2891 35.391-0.86719 42.035-40.723-19.805-10.723c6.9375-4.8281 37.371-3.7383 37.371-3.7383l32.555-34.723s-82.676-25.066-159.32 85.477c18.281-69.457 21.305-135.84 21.305-135.84-53.355 34.23-75.129 149.09-83.344 213.86-104.85-229.83-252.45-179.41-252.45-179.41l39.926 36.445s37.207-3.6211 45.762 1.3008l-24.199 13.535 51.621 42.445 43.312-1.7578-24.586 9.7266 13.828 14.883 21.645-0.89062-11.145 15.574 78.504 60.609c-1.6289 2.0625-3.1641 4.2188-4.0781 6.832-0.21094 0.58594-0.09375 1.1953-0.25781 1.7812-253.86-68.027-304.77 76.102-304.77 76.102l52.945-7.5938s19.688-29.789 28.723-33.152l-3.9727 26.133 64.77-12.586 24.82-33.223-7.1836 24.129 20.109-1.2188 12.398-16.629 5.5664 17.695 98.414-22.23c-2.0977 9.0117 2.4844 18.281 11.25 21.75 1.4531 2.4141 3.2109 4.6055 5.4609 6.4336-61.652 113.8-136.38 197.19-193.28 250.57-123.26-20.941-186.39-69.855-292-90.562 69.961-128.99 84.492-304.68 85.746-415.72 9.7383-2.0391 17.297-9.0234 20.027-18.48l65.555 72.047 14.414-9.9023 0.44531 19.23 15.234 12.258 7.9805-21.855 0.86719 38.449 44.191 45.82 11.684-21.516c5.25 7.6055 3.9961 40.676 3.9961 40.676l37.664 35.438s40.031-131.23-188.74-224.03c3.6562-2.6719 6.7383-5.9648 8.6484-10.113l69.023-18.105-2.1094-17.379 17.262 8.5312 17.906-7.8398-15.68-17.215 34.512 17.062 61.066-17.941-13.664-20.32c9.1406-1.1602 37.898 15.27 37.898 15.27l48.832-16.957s-89.309-88.137-261.66 43.816c-3.6211-3.1875-8.1211-5.1445-13.078-6.0352l36.234-67.605-14.168-10.277 17.988-6.8438 6.457-18.457-23.262-0.21094 35.977-13.676 28.406-56.953-24.188-3.8203c5.3789-7.4883 36.984-17.367 36.984-17.367l20.836-47.32s-93.844 4.1133-132.5 145.17c-6.3516-77.848-27.246-147.02-27.246-147.02-42.363 54.387-23.191 180.06-8.2148 249.46-190.55-197.82-323.72-92.789-323.72-92.789l54.117 22.934s36.832-17.156 47.391-15.199l-19.922 22.617 68.273 24.902 43.793-17.473-21.703 18.879 19.547 10.277 21.891-8.7422-5.8008 20.004 102.39 33.797c-0.90234 2.6836-1.6992 5.4609-1.6992 8.4609 0 0.70312 0.33984 1.2656 0.38672 1.9219-284.95 21.961-285.08 188.17-285.08 188.17l51.551-26.895s9.4102-37.664 17.484-44.391l5.3789 28.242 61.875-36.305 13.441-43.066 1.3477 27.34 20.18-8.5078 6.7266-21.527 12.105 16.148 92.906-58.383c1.0898 10.02 9.1406 17.859 19.359 18.258 2.3906 1.9805 4.9805 3.5742 7.9453 4.6289-32.543 204.39-156.13 407.09-157.01 407.06-198.22-5.25-263.02 265.59-263.02 265.59h1033s-45.738-151.54-285.88-155.98c-10.887-0.21094-20.953-0.79688-31.055-1.3828 61.113-83.602 104.04-182.96 129.94-253.89 9.0703 1.1953 17.754-2.543 23.004-9.9023l34.852 82.488 15.551-4.207-5.5078 16.863 9.457 15.27 13.617-16.512-10.992 33.621 24.34 53.238 16.711-15.07c2.2266 8.168-8.9766 36.504-8.9766 36.504l21.855 42.223s74.789-101.58-95.285-251.98c3.9727-1.207 7.6641-3.0938 10.605-6.1172l65.391 5.3555 3.4805-15.703 12.363 12.656 17.918-1.3242-8.3203-19.711 24.715 25.348 58.441 3.082-5.6484-21.797c8.2969 1.793 28.23 24.844 28.23 24.844l47.531 0.1875s-50.543-103.72-240.35-41.918z"/>
</svg>
