<?xml version="1.0" encoding="UTF-8"?>
<svg width="1200pt" height="1200pt" version="1.1" viewBox="0 0 1200 1200" xmlns="http://www.w3.org/2000/svg">
 <path d="m69.609 849.56c23.156-25.219 52.125-59.625 70.359-92.109l42.234-14.625 125.58-121.36 1.3594 1.0312 11.062 57.844-9.4688 26.062-36.281 27.609-11.062 84.469 24.469-44.203 39.469-21.281 18.938 59.203-6.1875 37.359h200.26l-89.859-76.828v-77.344l-33.234-32.766 36.891-43.406 42.656-21.938c9.2344-0.5625 17.297-10.406 52.359-70.875l20.484 34.312-33.656 97.359 56.812-29.531 8.4375 52.688 145.22 97.875-111.75-186.61-42.328-57.938 70.922-111.89 8.3438 62.766 29.438 23.156 57.891 69.469-30.516 71.531 45.234-21.094 35.812 9.5156 95.766 141-11.062 70.5h288.66c-43.125-34.359-205.18-167.39-266.16-271.97l-3.0469-5.1562-67.359-30.891-83.531-96.094-32.672-5.4844-65.906-89.438-89.812 141.66-37.219-21.094-9.375 16.359c-16.969 29.578-37.781 64.219-45.094 74.438l-52.688 27.094-40.359 47.531-84.797-64.828-142.92 138.14-48.469 16.734-3.4688 6.7031c-22.5 43.453-71.859 95.25-92.906 116.34z" fill="#676767"/>
</svg>
