<?xml version="1.0" encoding="UTF-8"?>
<svg width="1200pt" height="1200pt" version="1.1" viewBox="0 0 1200 1200" xmlns="http://www.w3.org/2000/svg">
 <path d="m11.988 600.02v-237.96c0-15.227 12.348-27.578 27.578-27.578h594.26v-179.57c0-15.227 12.348-27.539 27.578-27.539 7.5234 0 14.328 2.9883 19.297 7.8828l498.1 444.21c11.34 10.117 12.348 27.504 2.2695 38.879-0.79297 0.89844-1.6562 1.7266-2.5195 2.4844l-498.82 444.86c-11.34 10.117-28.766 9.1094-38.879-2.2695-4.6797-5.2578-6.9492-11.773-6.9492-18.289h-0.035156v-179.57h-594.26c-15.227 0-27.578-12.348-27.578-27.539v-238zm55.117-210.42v420.84h594.26c15.227 0 27.578 12.348 27.578 27.578v145.66l430.13-383.66-430.13-383.66v145.66c0 15.191-12.348 27.539-27.578 27.539h-594.26z"/>
</svg>
