<?xml version="1.0" encoding="UTF-8"?>
<svg width="1200pt" height="1200pt" version="1.1" viewBox="0 0 1200 1200" xmlns="http://www.w3.org/2000/svg">
 <path d="m573.55 373.29c0-18.895-15.113-34.008-34.008-34.008h-85.402c-46.848 0-84.633 37.785-84.633 84.633v366.52c0 46.848 37.785 84.633 84.633 84.633h85.402c18.895 0 34.008-15.113 34.008-34.008 0-18.895-15.113-34.008-34.008-34.008h-85.402c-9.0625 0-16.621-7.5586-16.621-16.621v-366.52c0-9.0625 7.5586-16.621 16.621-16.621h85.402c18.895 0 34.008-15.113 34.008-34.008z" fill="#676767"/>
 <path d="m490.42 600c0 18.895 15.113 34.008 34.008 34.008h242.6l-81.625 81.625c-6.7891 6.0508-9.832 15.113-9.832 24.176s3.7773 17.387 9.832 24.176c13.609 13.609 34.773 13.609 48.355 0l128.47-128.47c9.832-9.0625 14.348-21.902 14.348-35.512s-5.2852-25.684-14.348-35.512l-128.47-128.47c-13.609-13.609-34.773-13.609-48.355 0-13.609 13.609-13.609 34.773 0 48.355l81.625 81.625h-242.6c-18.895 0-34.008 15.113-34.008 34.008z" fill="#676767"/>
</svg>
