<?xml version="1.0" encoding="UTF-8"?>
<svg width="1200pt" height="1200pt" version="1.1" viewBox="0 0 1200 1200" xmlns="http://www.w3.org/2000/svg">
 <path d="m807.79 783.66v69.562c0 34.172-14.016 65.297-36.516 87.844-22.594 22.594-53.719 36.609-87.891 36.609h-516.94c-34.266 0-65.391-14.016-87.891-36.516l-0.98438-1.0781c-21.938-22.453-35.531-53.156-35.531-86.859v-506.48c0-34.266 13.969-65.391 36.516-87.938s53.672-36.516 87.938-36.516h304.08c9.9375 0 18 8.0625 18 18s-8.0625 18-18 18h-304.08c-24.328 0-46.453 9.9375-62.484 25.969-13.312 13.312-22.453 30.844-25.125 50.297l4.3594 0.75 0.89062 0.1875c9.0938-15.047 21.516-27.844 36.234-37.547 18.656-12.281 40.969-19.453 64.781-19.453 19.266 0 37.5 4.6406 53.625 12.844l1.4531 0.84375c13.031 6.8906 24.656 16.172 34.172 27.141h1.5469c26.953 0 51.328 10.922 69 28.594l1.0312 1.125c17.062 17.578 27.562 41.531 27.562 67.875 0 26.859-10.922 51.281-28.594 68.953-17.625 17.672-42 28.594-68.953 28.594-9.2344 0-18.422-1.3594-27.188-3.8906-5.5781-1.5938-10.875-3.7031-15.891-6.1406-5.8594 2.625-12 4.7344-18.328 6.375l-1.5938 0.32812c-9.0938 2.2031-18.422 3.375-27.797 3.375-14.25 0-28.125-2.625-40.969-7.4062-8.1562-2.9531-15.891-6.8906-23.062-11.531-5.625 4.3594-11.812 8.1094-18.375 11.016-7.7344 3.4688-15.984 5.8594-24.609 7.0781v232.22l192.52-170.53c7.2188-6.375 18.094-5.8594 24.75 0.9375l141.94 146.11c6.8906 7.0781 6.75 18.469-0.375 25.406-7.0781 6.8906-18.469 6.75-25.406-0.375l-129.98-133.87-203.44 180.24v59.484c0 23.906 9.6094 45.703 25.125 61.688l0.84375 0.79688c16.031 16.031 38.156 26.016 62.438 26.016h118.83l301.64-296.58c6.8438-6.75 17.812-6.8438 24.797-0.375l53.156 44.297 106.97-106.97v-235.4c0-23.906-9.6094-45.703-25.125-61.641l-0.84375-0.79688c-16.031-16.031-38.156-26.016-62.438-26.016h-57.375c-9.9375 0-18-8.0625-18-18s8.0625-18 18-18h57.375c34.219 0 65.344 14.016 87.891 36.516l0.98438 1.0781c21.938 22.453 35.531 53.156 35.531 86.812v199.4l206.9-206.9c16.266-16.266 37.828-24.469 59.391-24.422 21.516-0.09375 43.031 8.1094 59.391 24.469 16.312 16.312 24.516 37.875 24.516 59.391-0.046875 21.516-8.2031 43.078-24.516 59.391l-245.29 245.29c-7.0312 7.0312-18.422 7.0312-25.453 0s-7.0312-18.422 0-25.453l206.34-206.34-67.828-67.828-371.16 371.16 67.828 67.828 110.72-110.72c7.0312-7.0312 18.422-7.0312 25.453 0s7.0312 18.422 0 25.453l-26.297 26.297zm-729.79-412.69v106.12c3.5156-0.79688 6.8438-1.9219 9.9844-3.2812 6.9375-3.0938 13.125-7.6406 18.141-13.172l0.09375-0.09375c6.4688-7.5 17.812-8.2969 25.312-1.8281 7.2188 6.2344 15.656 11.25 24.938 14.672 8.8125 3.3281 18.469 5.1094 28.594 5.1094 6.75 0 13.172-0.75 19.078-2.1562l1.4062-0.42188c6.4219-1.6406 12.516-4.0312 18.141-7.0312 5.7188-3.5625 13.172-3.75 19.172 0.046875 4.9688 3.1406 10.266 5.625 15.75 7.2188 5.25 1.5 11.062 2.3438 17.203 2.3438 17.016 0 32.438-6.8906 43.547-18.047 11.156-11.062 18.047-26.484 18.047-43.547 0-16.641-6.5625-31.734-17.156-42.703l-0.84375-0.79688c-11.109-11.109-26.531-18.047-43.547-18.047l-3.8438 0.09375-3.75 0.375c-6.2812 0.75-12.75-1.8281-16.734-7.3125-7.3594-10.172-16.969-18.609-27.984-24.469l-1.2188-0.5625c-11.156-5.6719-23.859-8.9062-37.312-8.9062-16.688 0-32.203 4.9219-45.094 13.406-13.266 8.7656-23.906 21.328-30.281 36.188-3.8906 8.9062-14.25 13.172-23.25 9.5156-2.5781-1.0312-5.3906-1.9688-8.4375-2.625zm1016.5 75.047 13.5-13.5c9.3281-9.3281 14.016-21.656 14.016-33.938-0.09375-12.281-4.7344-24.609-14.062-33.938-9.2812-9.2812-21.609-13.969-33.938-13.969-12.234-0.09375-24.562 4.6406-33.938 13.969l-13.5 13.5 67.828 67.828zm-541.4 451.6 33.938-126.56c0.84375-3.7969 2.3906-6.2344 4.875-8.9531l47.531-47.531-38.906-32.438-264.05 259.6h346.92c24.328 0 46.453-9.9375 62.438-25.922 16.031-16.031 26.016-38.203 26.016-62.531v-33.562l-61.172 61.172c-2.625 2.625-5.8125 4.2188-9.1875 4.9219l-126.37 33.891c-9.5625 2.5312-19.453-3.1406-21.984-12.75-0.84375-3.1406-0.79688-6.3281 0-9.2812zm51.797-54.469-9.0469 33.656 67.312-18.047-49.266-49.266-9 33.609zm-0.1875-514.03c29.016 0 55.312 11.812 74.391 30.844l0.09375 0.09375c19.031 19.078 30.797 45.375 30.797 74.344 0 29.062-11.812 55.406-30.844 74.484-19.031 19.031-45.375 30.844-74.484 30.844-29.016 0-55.359-11.812-74.391-30.844-19.125-19.031-30.891-45.375-30.891-74.484 0-29.062 11.812-55.406 30.844-74.484 19.031-19.031 45.375-30.844 74.484-30.844zm49.031 56.25c-12.516-12.516-29.859-20.25-49.031-20.25-19.125 0-36.469 7.7812-49.031 20.297-12.516 12.516-20.297 29.859-20.297 49.031 0 19.125 7.7812 36.469 20.297 49.031 12.469 12.562 29.859 20.297 49.031 20.297 19.125 0 36.469-7.7812 49.031-20.297 12.516-12.516 20.297-29.859 20.297-49.031s-7.7344-36.516-20.25-49.031zm-106.73-127.08c-9.9375 0-18-8.0625-18-18s8.0625-18 18-18h2.4844c9.9375 0 18 8.0625 18 18s-8.0625 18-18 18z" fill="#676767"/>
</svg>
