<?xml version="1.0" encoding="UTF-8"?>
<svg width="1200pt" height="1200pt" version="1.1" viewBox="0 0 1200 1200" xmlns="http://www.w3.org/2000/svg">
 <path d="m322.45 1030.2h471c84.141 0 152.63-68.531 152.63-152.63v-198.37c0-19.922-16.078-36-36-36s-36 16.078-36 36v198.37c0 44.391-36.141 80.625-80.625 80.625h-471c-44.391 0-80.625-36.141-80.625-80.625l-0.046875-471.05c0-44.391 36.141-80.625 80.625-80.625h200.29c19.922 0 36-16.078 36-36s-16.078-36-36-36h-200.26c-84.141 0-152.63 68.531-152.63 152.63v471c-0.046875 84.141 68.484 152.68 152.63 152.68z" fill="#676767"/>
 <path d="m629.16 737.63 261.71-261.71-170.16-163.45-262.55 262.6z" fill="#676767"/>
 <path d="m980.16 386.76c18.703-18.703 18.703-49.219 0-67.922l-98.859-98.859c-18.703-18.703-49.219-18.703-67.922 0l-67.078 67.078 170.29 163.45z" fill="#676767"/>
 <path d="m430.22 769.78 166.4-13.406-153.47-145.92z" fill="#676767"/>
</svg>
