<?xml version="1.0" encoding="UTF-8"?>
<svg width="1200pt" height="1200pt" version="1.1" viewBox="0 0 1200 1200" xmlns="http://www.w3.org/2000/svg">
 <path d="m1009.4 707.11c-37.406 0-67.781 30.375-67.781 67.781v81.375c0 37.359-30.422 67.781-67.781 67.781h-547.6c-37.359 0-67.781-30.422-67.781-67.781v-81.375c0-37.406-30.375-67.781-67.781-67.781s-67.781 30.375-67.781 67.781v81.375c0 112.12 91.266 203.39 203.39 203.39h547.6c112.12 0 203.39-91.266 203.39-203.39v-81.375c0-37.406-30.375-67.781-67.781-67.781z"/>
 <path d="m385.08 494.9 164.06-164.06v392.63c0 28.078 22.781 50.859 50.859 50.859s50.859-22.781 50.859-50.859v-392.63l164.06 164.06c9.8906 9.8906 22.922 14.906 35.953 14.906s26.016-4.9688 35.953-14.906c19.875-19.875 19.875-52.078 0-71.953l-250.87-250.82c-19.875-19.875-52.078-19.875-71.953 0l-250.78 250.87c-19.875 19.875-19.875 52.078 0 71.953s52.078 19.875 71.953 0z"/>
</svg>
